<?xml version="1.0"?><svg width="640" height="480" xmlns="http://www.w3.org/2000/svg">
 <title>Finish Flags</title>

 <metadata id="metadata7">image/svg+xmlCheckered flagCheckered flag racing race cars</metadata>
 <g>
  <title>Layer 1</title>
  <g id="layer1">
   <path d="m169.164215,372.815948c0.63858,-1.222168 14.885193,-32.034912 31.658997,-68.472595l30.497955,-66.250336l6.742218,-3.42131c12.16803,-6.174652 26.501617,-9.035126 36.931519,-7.370224c15.705109,2.506958 29.090759,12.371155 52.530884,38.711334c17.120605,19.238861 26.454926,27.184387 37.439667,31.869263c8.38324,3.575378 8.655273,3.621613 21.148254,3.58902c13.959961,-0.036377 19.273071,-1.301788 30.605286,-7.28894l5.846497,-3.088867l32.212708,-70.036102c17.717041,-38.519852 32.214844,-70.609131 32.217407,-71.309494c0.003235,-0.873672 -1.801575,-0.398346 -5.749512,1.51413c-13.73761,6.655014 -27.870178,9.53421 -37.959045,7.733383c-15.66095,-2.79541 -27.97522,-11.801559 -50.727783,-37.10022c-15.274597,-16.98391 -24.708893,-25.828888 -32.356415,-30.335556c-15.822998,-9.324463 -35.081848,-9.848373 -54.291138,-1.476891c-7.226501,3.149239 -7.429474,3.18721 -7.429474,1.388397c0,-1.115387 -4.591644,-2.771507 -7.99942,-2.885239c-0.764008,-0.025558 -131.197113,281.849174 -131.197113,283.52581c0,0.353699 1.187164,0.900421 2.638245,1.214874c1.451019,0.314514 3.412445,0.828369 4.358704,1.141876c1.133392,0.375549 2.116577,-0.188202 2.881561,-1.652313zm201.695343,-74.524567c-3.005585,-0.986145 -8.671997,-3.769318 -12.59201,-6.184753l-7.12735,-4.391724l1.834686,-3.989441c1.009064,-2.194153 3.856964,-8.346375 6.328705,-13.671539l4.494019,-9.68219l6.525635,4.241272c6.4646,4.201813 16.120056,8.024841 20.26709,8.024841c1.182983,0 2.150879,0.493011 2.150879,1.095551c0,0.6026 -2.550171,6.778107 -5.667114,13.723358c-6.390503,14.239441 -6.208435,14.117706 -16.214539,10.834625zm22.977722,-25.18927c0,-0.265137 2.712646,-6.31897 6.028198,-13.453003c3.315491,-7.133972 6.028198,-13.275208 6.028198,-13.647156c0,-0.37207 -2.835938,-1.383118 -6.302185,-2.246918c-6.674683,-1.6633 -11.448425,-3.841492 -17.968323,-8.198486c-2.196594,-1.467911 -4.239319,-2.668945 -4.539368,-2.668945c-0.299988,0 -3.139221,5.643097 -6.309265,12.540253c-3.170105,6.897125 -6.226929,12.966125 -6.79303,13.486694c-1.158783,1.065704 -6.973633,-4.202423 -17.497894,-15.852783c-3.644257,-4.03418 -6.730469,-7.334824 -6.858154,-7.334824c-0.127686,0 -2.859222,5.749527 -6.070068,12.77684c-3.210876,7.027252 -6.221832,12.776855 -6.691071,12.776855c-0.469208,0 -3.204132,-2.661865 -6.077606,-5.915222c-2.873535,-3.253387 -8.101776,-8.52536 -11.618347,-11.715515l-6.39389,-5.800323l5.356445,-11.708694c2.945984,-6.439804 5.696747,-12.528 6.112701,-13.529327c0.67804,-1.632004 1.274323,-1.386871 5.756805,2.366119c2.750244,2.302643 8.199188,7.700256 12.108765,11.99469c3.909546,4.294495 7.276215,7.808121 7.481415,7.808121c0.2052,0 3.17984,-6.197891 6.610229,-13.773056c3.430481,-7.575195 6.366089,-13.644241 6.523621,-13.48671c0.157593,0.157501 4.226471,4.545364 9.041962,9.750732c4.815399,5.205399 10.214783,10.642868 11.998474,12.083298l3.243225,2.619019l5.804443,-13.029755c3.192444,-7.166397 6.203064,-13.403183 6.690369,-13.85965c0.489136,-0.458221 3.028259,0.685913 5.669006,2.55455c5.311829,3.758453 14.849182,7.882385 20.312012,8.782806c1.959229,0.322952 3.562134,0.874359 3.562134,1.225357c0,0.350967 -2.712646,6.475052 -6.028137,13.609055c-3.315613,7.133972 -6.028259,13.187836 -6.028259,13.452972c0,1.014709 10.778198,0.419525 16.75769,-0.925323c3.441833,-0.774139 9.710632,-2.908936 13.930725,-4.74411c4.220093,-1.835083 7.672852,-3.204773 7.672852,-3.043671c0,0.161011 -2.843567,6.448334 -6.319092,13.971741l-6.319153,13.678986l-8.203308,3.539398c-4.51178,1.946686 -10.916077,4.154633 -14.231506,4.906494c-5.863525,1.329712 -16.440613,1.979187 -16.440613,1.009491zm-153.393463,-52.164352c3.094177,-6.701279 6.166931,-12.749802 6.8284,-13.441086c1.845276,-1.92836 10.38382,-5.407272 18.718384,-7.62648c8.487366,-2.259903 19.922699,-2.751373 19.023773,-0.817581c-0.30249,0.650681 -3.153015,6.826172 -6.334473,13.723282l-5.784546,12.540253l-6.819733,0c-7.360901,0 -17.721527,2.455963 -25.68335,6.088226c-2.712677,1.237579 -5.076569,2.13028 -5.253113,1.983871c-0.176483,-0.146454 2.210632,-5.749176 5.304657,-12.450485zm180.197968,-4.380234c-0.290161,-0.652954 2.144165,-6.934937 5.409546,-13.959961c3.265442,-7.024963 5.708679,-13.092117 5.429504,-13.482529c-0.279236,-0.390427 -1.199951,-0.709808 -2.045898,-0.709808c-3.598145,0 -14.106323,-4.21199 -20.247375,-8.115723c-6.543457,-4.159592 -6.637634,-4.185226 -7.580444,-2.070374c-4.045532,9.073959 -11.499146,24.944077 -11.896179,25.329056c-0.624146,0.605209 -8.428833,-6.923584 -16.912048,-16.314377c-3.638489,-4.027725 -6.972076,-7.132858 -7.408081,-6.900223c-0.435822,0.232666 -3.400024,6.207626 -6.586914,13.277771c-3.18692,7.070175 -6.15213,12.730698 -6.589233,12.578888c-0.437225,-0.151825 -4.760773,-4.534943 -9.607941,-9.740326c-4.847198,-5.205399 -10.084595,-10.484619 -11.638763,-11.731644l-2.825714,-2.267212l-1.020325,2.267212c-0.561188,1.247025 -3.310028,7.360764 -6.108612,13.586105c-2.798523,6.225372 -5.265289,11.471664 -5.48172,11.658539c-0.2164,0.186859 -2.784698,-1.244431 -5.707306,-3.180695c-5.600616,-3.710403 -15.587341,-7.956253 -18.771515,-7.980713c-5.278168,-0.040558 -5.177979,-1.177841 1.345062,-15.268631c3.458405,-7.470703 6.388458,-13.673904 6.511169,-13.784882c0.122742,-0.110977 2.66626,0.356461 5.652405,1.038727c6.724884,1.536469 12.898254,4.232132 18.458282,8.060028c2.343475,1.613388 4.562958,2.929977 4.93219,2.925812c0.369202,-0.004181 3.335785,-5.860229 6.592377,-13.013458c3.256561,-7.153214 6.102875,-13.19223 6.325104,-13.420029c0.733612,-0.751831 10.309174,7.859634 17.035858,15.320511c3.637177,4.03418 6.964142,7.334885 7.39325,7.334885c0.429108,0 3.41806,-5.773163 6.64209,-12.829269c3.22406,-7.056046 6.155945,-12.986176 6.515381,-13.177979c0.359436,-0.19191 4.181519,3.558273 8.493408,8.333618c7.825195,8.666321 15.27887,15.542648 16.009583,14.769638c0.212463,-0.224731 3.012695,-6.158112 6.2229,-13.18541c3.210144,-7.027267 5.965332,-12.921707 6.122559,-13.098816c0.157227,-0.177078 2.913025,1.36734 6.123962,3.431992c7.524475,4.838272 9.987122,5.924576 17.512085,7.72464l6.193909,1.481644l-5.919861,12.736343c-3.25592,7.00499 -5.919861,13.333755 -5.919861,14.063812c0,1.072647 1.39032,1.198914 7.243164,0.657654c8.109619,-0.749878 15.779175,-2.814636 24.29248,-6.539795c3.151245,-1.378922 5.729553,-2.144867 5.729553,-1.702133c0,2.689377 -11.434265,25.571289 -13.619385,27.25473c-7.199463,5.546585 -34.758423,12.108109 -36.298645,8.64238zm-154.240875,-51.911316l6.324493,-13.625122l6.792297,-3.101837c11.191315,-5.110733 31.020966,-8.702286 31.020966,-5.61853c0,0.669464 -2.663727,6.951416 -5.919342,13.9599l-5.919342,12.742706l-7.167175,0.626114c-8.904877,0.777908 -17.00473,2.866379 -24.835571,6.403763c-3.315521,1.497665 -6.161591,2.613953 -6.324493,2.480621c-0.163025,-0.133362 2.549652,-6.373749 6.028168,-13.867615zm60.687073,-18.755951c-2.169647,-0.941223 -5.917847,-2.227142 -8.329102,-2.857651c-2.411285,-0.630508 -4.969299,-1.303268 -5.684448,-1.494934c-0.862244,-0.231079 0.737854,-4.749786 4.750488,-13.41478c3.327911,-7.186447 6.486694,-13.457291 7.019409,-13.935127c2.247467,-2.015877 15.788727,2.988159 26.030243,9.619301l3.282654,2.125443l6.010864,-12.972382c3.306,-7.134766 6.535278,-13.123322 7.176331,-13.307808c1.09201,-0.314323 18.58252,17.178352 22.043152,22.045906c1.454712,2.04612 1.116577,3.230911 -4.312927,15.114075c-3.240356,7.091629 -6.175232,13.045349 -6.522095,13.230484c-0.346924,0.185104 -4.305847,-3.675522 -8.797791,-8.579132c-8.275848,-9.034225 -15.021271,-15.256897 -15.731201,-14.511948c-0.322052,0.337891 -8.329437,17.485657 -11.796204,25.261429c-0.952545,2.136505 -0.958252,2.135345 -6.073914,-1.236542c-2.816254,-1.856293 -6.895721,-4.145142 -9.06546,-5.086334zm-40.66217,-24.193146c0,-0.251694 2.489319,-5.894821 5.531738,-12.540253c6.270782,-13.696617 7.49942,-14.915649 19.337341,-19.185249c7.428345,-2.679222 23.742828,-5.655968 25.008514,-4.563034c0.31897,0.275436 -2.247559,6.739471 -5.7034,14.364563l-6.283295,13.863808l-6.615082,0.01265c-6.909424,0.013245 -21.893951,3.86171 -26.955292,6.922966c-2.584045,1.562859 -4.320526,2.014839 -4.320526,1.12455z" id="path2396" fill="#000000"/>
  </g>
 </g>
</svg>